# xmcd
#
# Track frame offsets: 
#        150
#        12597
#        23095
#        35695
#        47092
#        59760
#        71212
#        86705
#        98202
#        110132
#        120495
#        131192
#        142877
#        156947
#        167425
#        182207
#        195342
#        208102
#        223042
#        237150
#
# Disc length: 3362 seconds
#
# Revision: 1
# Processed by: cddbd v1.5.1PL0 Copyright (c) Steve Scherf et al.
# Submitted via: ExactAudioCopy v0.95a4
#
DISCID=2c0d2014
DTITLE=The Impressions - Ultimate Collection
DYEAR=2001
DGENRE=R&B
TTITLE0=For Your Precious Love
TTITLE1=Gypsy Woman
TTITLE2=It's All Right
TTITLE3=Talking About My Baby
TTITLE4=I'm So Proud
TTITLE5=Keep On Pushing
TTITLE6=Amen
TTITLE7=You Must Believe Me
TTITLE8=People Get Ready
TTITLE9=Woman's Got Soul
TTITLE10=Meeting Over Yonder
TTITLE11=You've Been Cheatin
TTITLE12=Man Oh Man
TTITLE13=We're A Winner
TTITLE14=I Loved And I Lost
TTITLE15=Fool For You
TTITLE16=This Is My Country
TTITLE17=Choice Of Colors
TTITLE18=Finally Got Myself Together
TTITLE19=Same Thing It Took
EXTD=
EXTT0=
EXTT1=
EXTT2=
EXTT3=
EXTT4=
EXTT5=
EXTT6=
EXTT7=
EXTT8=
EXTT9=
EXTT10=
EXTT11=
EXTT12=
EXTT13=
EXTT14=
EXTT15=
EXTT16=
EXTT17=
EXTT18=
EXTT19=
PLAYORDER=
